<!-- Generated by IcoMoon.io -->
<svg version="1.1" xmlns="http://www.w3.org/2000/svg" width="947" height="1024" viewBox="0 0 947 1024">
<title></title>
<g id="icomoon-ignore">
</g>
<path d="M468.974 8.192l-78.248 152.586c-8.878 16.583-24.785 15.044-40.693 5.781l-56.652-30.668 42.225 234.367c8.878 42.818-19.607 42.818-33.67 24.304l-98.861-115.715-16.051 58.763c-1.85 7.717-9.988 15.822-22.198 13.892l-125.014-27.481 32.835 124.813c7.031 27.772 12.512 39.271-7.096 46.596l-44.558 21.896 215.203 182.762c8.517 6.911 12.823 19.346 9.789 30.606l-18.835 64.623c74.098-8.929 140.53-16.923 214.627-25.842 6.585-0.085 17.502 5.766 17.456 13.695l-9.816 236.757h36.026l-5.672-236.247c-0.045-7.932 9.856-14.289 16.44-14.204 74.097 8.919 140.528 16.913 214.627 25.842l-18.835-64.623c-3.035-11.259 1.271-23.695 9.789-30.606l215.203-182.762-44.558-21.896c-19.608-7.325-14.127-18.824-7.096-46.596l32.836-124.813-125.014 27.481c-12.21 1.93-20.348-6.175-22.198-13.892l-16.051-58.763-98.861 115.715c-14.063 18.514-42.548 18.514-33.67-24.304l42.225-234.367-56.652 30.668c-15.909 9.263-31.816 10.802-40.693-5.781z"></path>
</svg>
