<!-- Generated by IcoMoon.io -->
<svg version="1.1" xmlns="http://www.w3.org/2000/svg" width="1024" height="1024" viewBox="0 0 1024 1024">
<title></title>
<g id="icomoon-ignore">
</g>
<path d="M513.285 580.29h0.219c7.722 0 15.353-2.24 21.527-6.32l1.675-1.076c0.365-0.238 0.746-0.453 1.129-0.709l19.506-16.138 465.584-384.207c-0.964-1.33-2.605-2.24-4.354-2.24h-1013.163c-1.257 0-2.423 0.455-3.351 1.22l487.111 401.492c6.139 5.083 14.898 7.98 24.116 7.98zM0 224.040v569.508l348.946-281.886-348.946-287.622zM675.418 513.574l348.582 280.119v-567.759l-348.582 287.64zM564.59 605.005c-13.896 11.401-32.072 17.686-51.16 17.686-19.16 0-37.319-6.248-51.178-17.595l-79.921-65.914-382.332 308.808v0.982c0 2.933 2.513 5.428 5.481 5.428h1013.109c2.913 0 5.408-2.495 5.408-5.446v-0.91l-382.002-306.929-77.406 63.891z" fill="#3e3e3e"></path>
</svg>
