<svg id="Calque_1" data-name="Calque 1" xmlns="http://www.w3.org/2000/svg" viewBox="0 0 512 512"><defs><style>.cls-1{fill:#f8f8f8;}</style></defs><title>instagram-logo</title><path class="cls-1" d="M256,4.08h0ZM507.92,256c0,68.42-.29,77-1.52,103.87S500.93,405,494.7,421A128.82,128.82,0,0,1,421,494.69c-16,6.23-34.34,10.49-61.15,11.71s-35.45,1.52-103.87,1.52-77-.29-103.87-1.52S107,500.92,91,494.69a123.48,123.48,0,0,1-44.62-29.06A123.49,123.49,0,0,1,17.31,421C11.08,405,6.82,386.68,5.6,359.87S4.08,324.42,4.08,256s.29-77,1.52-103.87S11.08,107,17.3,91A123.49,123.49,0,0,1,46.36,46.36,123.49,123.49,0,0,1,91,17.3c16-6.23,34.34-10.49,61.15-11.71S187.58,4.08,256,4.08s77,.29,103.86,1.52S405,11.08,421,17.3a123.49,123.49,0,0,1,44.62,29.06A123.49,123.49,0,0,1,494.7,91c6.23,16,10.49,34.34,11.71,61.15S507.92,187.58,507.92,256Zm-45.39,0c0-67.27-.26-75.23-1.47-101.8-1.12-24.56-5.22-37.9-8.67-46.78a78.05,78.05,0,0,0-18.85-29,78.05,78.05,0,0,0-29-18.84c-8.88-3.45-22.22-7.55-46.78-8.67-26.57-1.21-34.53-1.47-101.8-1.47h0c-67.27,0-75.23.26-101.8,1.47-24.56,1.12-37.9,5.22-46.78,8.67a78.05,78.05,0,0,0-29,18.85,78.05,78.05,0,0,0-18.85,29c-3.45,8.88-7.55,22.22-8.67,46.78-1.21,26.57-1.47,34.53-1.47,101.8s.26,75.24,1.47,101.8c1.12,24.56,5.22,37.9,8.67,46.78a78.05,78.05,0,0,0,18.85,29,78.05,78.05,0,0,0,29,18.84c8.88,3.45,22.22,7.55,46.78,8.67,26.56,1.21,34.53,1.47,101.8,1.47s75.24-.26,101.8-1.47c24.56-1.12,37.9-5.22,46.78-8.67a83.43,83.43,0,0,0,47.81-47.81c3.45-8.88,7.55-22.22,8.67-46.78C462.28,331.24,462.53,323.27,462.53,256Zm-77.17,0A129.36,129.36,0,1,1,256,126.64,129.37,129.37,0,0,1,385.36,256ZM340,256a84,84,0,1,0-84,84A84,84,0,0,0,340,256Zm50.5-164.71a30.23,30.23,0,1,0,30.23,30.23A30.23,30.23,0,0,0,390.48,91.29Z"/></svg>