<!-- Generated by IcoMoon.io -->
<svg version="1.1" xmlns="http://www.w3.org/2000/svg" width="1024" height="1024" viewBox="0 0 1024 1024">
<title></title>
<g id="icomoon-ignore">
</g>
<path d="M139.617 744.7c-38.788 0-71.747 13.578-98.903 40.722-27.138 27.141-40.714 60.107-40.714 98.893 0 38.796 13.563 71.754 40.714 98.895 27.156 27.143 60.125 40.722 98.903 40.722 38.783 0 71.744-13.578 98.895-40.722 27.141-27.141 40.717-60.099 40.717-98.895 0-38.788-13.576-71.752-40.717-98.893-27.143-27.143-60.104-40.722-98.895-40.722z" fill="#ededed"></path>
<path d="M461.034 562.894c-54.786-55.265-117.565-99.257-188.346-131.976-70.781-32.729-144.961-52.242-222.522-58.543h-3.629c-12.605 0-23.030 4.124-31.265 12.363-10.185 8.716-15.272 20.116-15.272 34.173v98.169c0 12.116 3.996 22.541 11.991 31.275 7.998 8.734 18.056 13.581 30.177 14.538 111.014 10.669 205.913 55.403 284.687 134.171 78.779 78.769 123.505 173.673 134.169 284.682 0.973 12.134 5.817 22.19 14.549 30.174 8.729 8.018 19.146 12.022 31.265 12.022h98.175c14.052 0 25.442-5.081 34.168-15.272 9.223-9.709 13.336-21.346 12.386-34.917-6.311-77.549-25.827-151.733-58.548-222.509-32.719-70.787-76.718-133.56-131.984-188.351z" fill="#ededed"></path>
<path d="M936.607 610.521c-51.87-116.105-123.135-219.242-213.786-309.416-90.177-90.658-193.308-161.919-309.424-213.793-116.103-51.865-237.664-80.959-364.683-87.261h-2.178c-12.605 0-23.269 4.363-31.998 13.092-9.691 8.718-14.538 19.877-14.538 33.452v103.982c0 12.124 4.246 22.661 12.725 31.631 8.482 8.973 18.779 13.693 30.9 14.187 104.234 6.311 203.249 31.043 297.058 74.187 93.806 43.146 175.25 99.262 244.335 168.332 69.070 69.083 125.183 150.531 168.329 244.337 43.146 93.822 67.641 192.821 73.453 297.050 0.497 12.134 5.211 22.437 14.172 30.918 8.976 8.479 19.77 12.733 32.372 12.733h103.977c13.578 0 24.709-4.844 33.452-14.556 9.702-9.694 14.052-21.074 13.102-34.168-6.294-127.030-35.398-248.588-87.268-364.706z" fill="#ededed"></path>
</svg>
