<svg xmlns="http://www.w3.org/2000/svg" viewBox="0 0 888 335.16">
  <path fill="#ededed"
        d="M888,126.72a9.54,9.54,0,0,0-5.45-6,13.05,13.05,0,0,0-6.84-.72,10.55,10.55,0,0,0-9.35,9.47,17.78,17.78,0,0,1-1.8,6.17A63.26,63.26,0,0,1,855,149.43a206.72,206.72,0,0,1-31,28.22,406.82,406.82,0,0,1-67.49,41.07,239,239,0,0,1-36.25,14.41c-9.2,2.71-18.46,5.21-28.13,5.57-4.39.16-8.8.31-13.07-1.09a18.46,18.46,0,0,1-10.66-8.25,2.44,2.44,0,0,1,1.05-1.12,295.45,295.45,0,0,0,47.94-43,217,217,0,0,0,29-39.6c5.21-9.32,9.49-19,11.76-29.51,1.73-8,2.21-16,.17-24a33.59,33.59,0,0,0-11-17.9c-6.72-5.65-14.59-6.84-23-5.4a58.45,58.45,0,0,0-19.57,7.54c-12.62,7.35-22.5,17.58-30.72,29.5-9.88,14.31-17,30-22.73,46.36a190.19,190.19,0,0,0-9.42,40.53,115.25,115.25,0,0,0-.81,14.11,63,63,0,0,0,.72,11.23,2.12,2.12,0,0,1-1.25,2.51c-10.3,5.85-20.83,11.2-32.27,14.49-8.18,2.35-16.45,4-25,3.68a25.79,25.79,0,0,1-12.37-3.27,17.18,17.18,0,0,1-6-6.07c-.41-.66-.45-1.16.28-1.59.34-.2.66-.46,1-.68a262.15,262.15,0,0,0,47.5-42.36c13.44-15.34,25.21-31.83,34.2-50.21,3-6.17,5.95-12.4,7.62-19.11,2.2-8.84,2.56-17.67-.22-26.49a29.73,29.73,0,0,0-33.52-20.47A62.54,62.54,0,0,0,593,81.6a118.17,118.17,0,0,0-27.27,31.63,210.64,210.64,0,0,0-22.39,53.31,169.88,169.88,0,0,0-5.62,33.26,86.76,86.76,0,0,0,.37,17,2.48,2.48,0,0,1-1.4,2.89,200.12,200.12,0,0,1-31.07,14.9c-6.87,2.48-13.92,4.25-21.32,3.88-10.1-.5-15.86-5.5-19.35-14.24a1.08,1.08,0,0,1,.49-1.58c.41-.24.81-.52,1.21-.78A219.3,219.3,0,0,0,507,188.42a222.16,222.16,0,0,0,35.78-50.54c5.12-9.83,9.19-20,10.35-31.21a41.67,41.67,0,0,0-3.94-23.31,25.27,25.27,0,0,0-16.09-13.75c-6.14-1.78-12.32-1.54-18.5-.24a59.79,59.79,0,0,0-23.49,10.94c-13.3,9.87-23.19,22.58-30.9,37.1a178.36,178.36,0,0,0-15.06,40.31c-3.82,15.15-6.39,30.49-6.25,46.18,0,2.31.17,4.63.35,6.94a2,2,0,0,1-1.27,2.24c-4.34,2.22-8.74,4.32-13.24,6.18a9.61,9.61,0,0,0-6,7.48c-1.25,6.07,2.26,11.87,8,13.08a13.43,13.43,0,0,0,8.42-1.06c3.2-1.43,6.38-2.91,9.55-4.35.1.07.19.1.23.17.27.48.54,1,.8,1.46,8.49,16.65,22.36,24.48,40.77,24.47a80,80,0,0,0,26.49-5,190.09,190.09,0,0,0,30.85-14.25c1.7-1,1.55-1.16,2.74.63a39.92,39.92,0,0,0,17.56,14.76c9.57,4.16,19.61,4.88,29.85,3.8a119.9,119.9,0,0,0,28.81-6.91A176.15,176.15,0,0,0,648,241.85c2-1.13,1.73-.91,2.77.57a41.58,41.58,0,0,0,6.13,7c8.59,7.78,18.95,11,30.27,11.57,10.33.52,20.39-1.3,30.29-4a300.8,300.8,0,0,0,54.89-21.18A398.1,398.1,0,0,0,852.39,183a159.88,159.88,0,0,0,25-26.11,58.21,58.21,0,0,0,9.69-18.35c.41-1.37.11-2.88.92-4.15h0Q888,130.56,888,126.72ZM461.33,198.47a123,123,0,0,1,1.52-17.26,195.45,195.45,0,0,1,11.38-41.27,106.79,106.79,0,0,1,11.58-22.3c6.84-9.68,14.91-18.18,25.49-23.9a25.73,25.73,0,0,1,10.61-3.52c5.14-.32,7.87,1.86,9,7a25.1,25.1,0,0,1-.28,10.71c-2,9.15-5.82,17.59-10.43,25.66a204.14,204.14,0,0,1-29.39,40.16A189.59,189.59,0,0,1,462.71,198,1.88,1.88,0,0,1,461.33,198.47Zm100,4.87a2.51,2.51,0,0,1-1.55.74h0a97.87,97.87,0,0,1,1.5-16,197.43,197.43,0,0,1,15.26-48.3A134.12,134.12,0,0,1,589.77,117c6.42-8.76,13.84-16.55,23.29-22.17a33.19,33.19,0,0,1,10.86-4.29c.31-.06.62-.15.94-.19,5.89-.74,9.55,2.13,10.22,8a33,33,0,0,1-1.76,13.92,99,99,0,0,1-7.67,16.76,226.1,226.1,0,0,1-37.73,50.87A248.56,248.56,0,0,1,561.29,203.34Zm102.06,1.53a99.93,99.93,0,0,1,2.11-20.34,191.59,191.59,0,0,1,15.63-46.66c5.6-11.47,12.11-22.34,21.17-31.49,5.2-5.25,10.78-10,17.5-13.23,3.11-1.49,6.31-2.67,9.88-2.51a6.77,6.77,0,0,1,6.16,3.84,18.7,18.7,0,0,1,1.73,9.78c-.43,9.37-3.69,18-8,26.13-9,17.09-20.74,32.21-34.12,46.09a288.73,288.73,0,0,1-30,27.2A4.05,4.05,0,0,1,663.35,204.87Zm-547-2.89c.09,2.32,0,4.64,0,7v32.4c0,4.62-1.91,7.51-6.22,9.18a172.11,172.11,0,0,1-21.91,6.9,89.77,89.77,0,0,1-27.32,2.71C50.13,259.4,40.42,256,32.75,248c-5.87-6.12-9.21-13.57-11.08-21.73A62.77,62.77,0,0,1,20.14,212q.07-35.4,0-70.79c0-6.48,0-13-.07-19.43,0-2.29,0-2.3-2.39-2.3-3.84,0-7.68-.08-11.52,0C3.85,119.55,1.9,119.1.6,117c-.11-.17-.4-.23-.6-.35V71c.15,0,.39,0,.45-.09,1.37-2.35,3.55-2.6,6-2.53,3.92.11,7.84.05,11.76,0,1.69,0,1.82-.07,1.74-1.78-.29-6.07-.14-12.15-.22-18.22-.05-3.68-.1-7.36,0-11,.1-4.93,2.47-7.79,7.17-9.2,13.77-4.12,27.59-8.07,41.19-12.73a22.44,22.44,0,0,1,3.48-.86c4.41-.76,7.55,1.58,8.08,6a30.7,30.7,0,0,1,.05,3.59q0,21,0,42c0,2.2,0,2.22,2.28,2.22h28.8a16.66,16.66,0,0,1,2.16.06,3.84,3.84,0,0,1,3.4,3.48,12.08,12.08,0,0,1,0,1.44q0,20.52,0,41c0,3.49-1.47,4.94-5,5H110q-13.68,0-27.36,0c-3.32,0-2.91-.32-2.91,3q0,34.2,0,68.39a21.85,21.85,0,0,0,.34,4.77c.94,4.22,3.45,6.62,7.71,7.49,4,.81,7.8.11,11.63-.74A58.67,58.67,0,0,0,110,198.82c.29-.13.58-.27.88-.39C114.27,197.14,116.19,198.36,116.33,202ZM154.43,33A31.37,31.37,0,0,1,178.5.71c1-.23,2.1.06,2.94-.71h6.72a34.83,34.83,0,0,1,12.08,3.56A31.22,31.22,0,1,1,154.43,33ZM429.3,156.92a103.35,103.35,0,0,0-6.9-31.46C414.86,106.31,403,90.6,385.29,79.74s-37-13.92-57.35-9.22A90.86,90.86,0,0,0,317.08,74h0c-.64-4.61-1.77-5.84-5.42-5.84q-34.91,0-69.82,0c-3.68,0-5.19,1.59-5.19,5.33q0,20.27,0,40.55c0,3.63,1.46,5.13,5,5.18,3.2,0,6.4,0,9.6,0,3.66,0,3.18-.38,3.18,3.2q0,79.3,0,158.6c0,.4,0,.8,0,1.2,0,1.89,0,1.91-2,1.91-3.76,0-7.52,0-11.28,0a4.26,4.26,0,0,0-4.19,2.62,6.29,6.29,0,0,0-.34,2.83q0,20,0,40.07a14.21,14.21,0,0,0,0,1.68,4.29,4.29,0,0,0,3.25,3.73,12,12,0,0,0,2.15.07h86.86c.48,0,1,0,1.44,0a4,4,0,0,0,3.8-3.08,11.66,11.66,0,0,0,.31-3.33q0-19.07,0-38.15c0-.56,0-1.12,0-1.68-.25-3.29-1.77-4.72-5.07-4.73-3.52,0-7,0-10.56,0-1.93,0-2,0-2-2q0-13,0-25.91c0-.44-.17-1,.33-1.33.84-.16,1.52.35,2.24.63a71.92,71.92,0,0,0,20,4.51,74.24,74.24,0,0,0,39.07-7.41c16.62-8.2,29-20.79,37.92-36.85C426.65,197.49,430.64,177.77,429.3,156.92Zm-59.11,36.15a36.8,36.8,0,0,1-9.59,12.14c-9.1,7.27-20.13,6.93-28.78-.89a39.83,39.83,0,0,1-10.7-16.26c-6.18-17.05-5.87-34,1.5-50.62A36.06,36.06,0,0,1,333.76,123a21.13,21.13,0,0,1,14-4.74,22.57,22.57,0,0,1,14.54,6.56,42.52,42.52,0,0,1,10.61,16.62,64.52,64.52,0,0,1,3.91,22.78C376.78,174.31,374.89,184,370.19,193.08Zm-136,20.84q0,20.88,0,41.76c0,3.2-1.55,4.56-5.06,4.56H153.34c-3.92,0-7.84,0-11.76,0-3.16,0-4.69-1.54-4.69-4.72q0-20.76,0-41.52c0-3.1,1.63-4.68,4.77-4.7,3.36,0,6.72,0,10.08,0,3.06,0,2.74.32,2.75-2.64,0-5.76,0-11.52,0-17.28q0-24.72,0-49.44a8.2,8.2,0,0,0-.16-2.58,3.39,3.39,0,0,0-2.37.29c-3.06.91-6.11,1.85-9.19,2.72a3.82,3.82,0,0,1-5.08-3.24,15.11,15.11,0,0,1-.12-2.39q0-18.72,0-37.44c0-.72,0-1.44.08-2.16.28-3.25,1.45-4.73,4.58-5.67Q160.11,84.07,178,78.72L210.35,69a12,12,0,0,1,1.85-.48,3.82,3.82,0,0,1,4.42,3.39,21,21,0,0,1,.06,2.64q0,65.87,0,131.75c0,3.46-.29,3,2.9,3,3.36,0,6.72,0,10.08,0C232.64,209.33,234.23,210.91,234.23,213.92Z"/>
</svg>
